<?xml version="1.0" encoding="utf-8"?>
<!-- Generator: Adobe Illustrator 24.1.3, SVG Export Plug-In . SVG Version: 6.00 Build 0)  -->
<svg version="1.1" id="Layer_1" xmlns="http://www.w3.org/2000/svg" xmlns:xlink="http://www.w3.org/1999/xlink" x="0px" y="0px"
	 viewBox="0 0 572 92" style="enable-background:new 0 0 572 92;" xml:space="preserve">
<style type="text/css">
	.st0{fill:#FFFFFF;}
	.st1{font-family:'Helvetica-BoldOblique';}
	.st2{font-size:114px;}
</style>
<path class="st0" d="M1.8,136.7h32.9v1.3l-2.6,1c-1.7,0.6-2.8,1.4-3.4,2.4c-0.6,1-0.8,2.4-0.8,4.1v66.8c0,1.7,0.3,3.1,0.8,4
	c0.6,1,1.7,1.8,3.4,2.5l2.6,1v1.3H1.8v-1.3l2.6-1c1.7-0.6,2.8-1.4,3.4-2.4c0.6-1,0.8-2.4,0.8-4.1v-66.8c0-1.7-0.3-3.1-0.8-4.1
	s-1.7-1.8-3.5-2.4l-2.6-1V136.7z M140.5,213.3v-37.5c0-6.2-1.4-10.8-4.3-13.7c-2.9-2.9-7.3-4.4-13.4-4.4c-3.7,0-7.4,0.9-11.3,2.8
	c-3.9,1.8-7.5,4.3-10.8,7.5c-1.3-3.5-3.2-6.1-5.6-7.7c-2.5-1.7-5.8-2.5-9.9-2.5c-3.9,0-7.7,1-11.3,2.9c-3.6,2-6.8,4.4-9.7,7.2
	l-1-8.7l-1.3-1.3l-21.9,7.4v1.3l1.9,0.5c1.7,0.3,2.9,1,3.5,1.9c0.6,0.9,0.9,2.3,0.9,4.2v40.1c-0.1,1.7-0.4,3.1-1.1,4.1
	c-0.6,1-1.8,1.8-3.4,2.2l-1.8,0.5v1.3h30.1v-1.3l-1.2-0.4c-3-0.9-4.5-2.9-4.5-6.3v-42.9c2.1-1.9,4.2-3.3,6.1-4.3
	c2-1,3.9-1.5,5.9-1.5c3,0,5.1,0.7,6.3,2.2c1.2,1.5,1.9,3.9,1.9,7.3v39c0,1.7-0.3,3.1-1,4c-0.6,1-1.8,1.7-3.4,2.2l-1.8,0.5v1.3h29.7
	v-1.3l-1.2-0.4c-3-0.9-4.5-2.9-4.6-6.3v-33.2c0-1.8-0.1-3.5-0.2-5.1c-0.1-1.6-0.4-3.1-0.8-4.5c2.3-2,4.5-3.4,6.6-4.4
	c2.1-1,4.2-1.5,6.5-1.5c2.8,0,4.9,0.7,6.1,2c1.3,1.3,1.9,3.8,1.9,7.4v39.2c0,1.7-0.3,3.1-1,4.1c-0.6,1-1.8,1.8-3.4,2.3l-1.3,0.4v1.3
	h29.6v-1.3l-1.4-0.4C142.1,218.7,140.5,216.6,140.5,213.3z M252,213.3v-37.5c0-6.2-1.4-10.8-4.3-13.7c-2.9-2.9-7.3-4.4-13.4-4.4
	c-3.7,0-7.4,0.9-11.3,2.8c-3.9,1.8-7.5,4.3-10.8,7.5c-1.3-3.5-3.2-6.1-5.6-7.7c-2.5-1.7-5.8-2.5-9.9-2.5c-3.9,0-7.7,1-11.3,2.9
	c-3.6,2-6.8,4.4-9.7,7.2l-1-8.7l-1.3-1.3l-21.9,7.4v1.3l1.9,0.5c1.7,0.3,2.9,1,3.5,1.9c0.6,0.9,0.9,2.3,0.9,4.2v40.1
	c-0.1,1.7-0.4,3.1-1.1,4.1c-0.6,1-1.8,1.8-3.4,2.2l-1.8,0.5v1.3h30.1v-1.3l-1.2-0.4c-3-0.9-4.5-2.9-4.5-6.3v-42.9
	c2.1-1.9,4.2-3.3,6.1-4.3c2-1,3.9-1.5,5.9-1.5c3,0,5.1,0.7,6.3,2.2c1.2,1.5,1.9,3.9,1.9,7.3v39c0,1.7-0.3,3.1-1,4
	c-0.6,1-1.8,1.7-3.4,2.2l-1.8,0.5v1.3h29.7v-1.3l-1.2-0.4c-3-0.9-4.5-2.9-4.6-6.3v-33.2c0-1.8-0.1-3.5-0.2-5.1
	c-0.1-1.6-0.4-3.1-0.8-4.5c2.3-2,4.5-3.4,6.6-4.4c2.1-1,4.2-1.5,6.5-1.5c2.8,0,4.9,0.7,6.1,2c1.3,1.3,1.9,3.8,1.9,7.4v39.2
	c0,1.7-0.3,3.1-1,4.1c-0.6,1-1.8,1.8-3.4,2.3l-1.3,0.4v1.3H258v-1.3l-1.4-0.4C253.6,218.7,252,216.6,252,213.3z M288.6,217.2
	c-0.6-1-1-2.4-1-4.1v-35.8l0.4-18.2l-1.3-1.3l-23.4,7.6v1.3l1.8,0.4c1.7,0.3,2.9,1,3.5,1.9s1,2.2,1,4V213c0,1.7-0.3,3.1-1,4.1
	c-0.6,1-1.8,1.8-3.5,2.3l-1.8,0.5v1.3h30v-1.3l-1.3-0.4C290.3,219,289.2,218.3,288.6,217.2z M278.4,151.1c2.9,0,5.3-0.9,7.3-2.8
	c2-1.8,2.9-4.2,2.9-7c0-2.9-1-5.2-2.9-7c-2-1.8-4.4-2.7-7.3-2.7c-2.9,0-5.4,0.9-7.4,2.7c-2,1.8-3,4.1-3,7c0,2.8,1,5.1,3,7
	C273,150.1,275.5,151.1,278.4,151.1z M361.8,213.3v-36.9c0-6.3-1.5-11-4.5-14.1c-3-3.1-7.4-4.6-13-4.6c-3.7,0-7.4,0.9-11.1,2.6
	c-3.8,1.7-7.1,3.9-10.1,6.5l-1-7.7l-1.3-1.3l-21.9,7.4v1.3l1.9,0.5c1.7,0.3,2.9,1,3.5,1.9c0.6,0.9,0.9,2.3,0.9,4.2v40.1
	c0,3.3-1.5,5.4-4.5,6.3l-1.8,0.5v1.3h30.1v-1.3l-1.2-0.4c-3-0.9-4.5-2.9-4.5-6.3v-43.5c4.4-3.8,8.5-5.6,12.3-5.6
	c5.5,0,8.2,2.7,8.2,8.2v40.8c0,3.2-1.5,5.3-4.5,6.3l-1.7,0.5v1.3h30.2v-1.3l-1.2-0.4C363.5,218.7,361.8,216.6,361.8,213.3z
	 M425,170.3c2.1,3.9,3.1,8.3,3.1,13.2c0,0.9,0,1.9-0.1,2.9c-0.1,1-0.3,1.9-0.5,2.6h-38.1c0.1,9.2,1.7,15.9,4.9,19.9
	c3.2,4.1,8,6.1,14.3,6.1c4.3,0,7.7-0.7,10.4-2c2.6-1.4,5.1-3.4,7.4-6l1.3,1.2c-2.6,4.7-6.2,8.4-10.6,11c-4.4,2.6-9.7,4-15.8,4
	c-6.1,0-11.4-1.3-16.1-3.9c-4.7-2.6-8.4-6.3-11-11.2c-2.6-4.9-4-10.7-4-17.4c0-7,1.5-12.9,4.6-17.9c3.1-4.9,7-8.6,11.8-11.2
	c4.8-2.6,9.9-3.8,15.2-3.8c5.5,0,10.3,1.1,14.2,3.4C419.9,163.4,422.9,166.4,425,170.3z M410.2,166.4c-1.5-4.1-4.5-6.1-8.8-6.1
	c-2.5,0-4.6,0.7-6.3,2.2c-1.8,1.5-3.1,4.1-4.1,7.9c-1,3.8-1.5,9.2-1.6,16.1h21.9C412.1,177.2,411.8,170.5,410.2,166.4z M496.2,213.3
	v-36.9c0-6.3-1.5-11-4.5-14.1c-3-3.1-7.4-4.6-13-4.6c-3.7,0-7.4,0.9-11.1,2.6c-3.8,1.7-7.1,3.9-10.1,6.5l-1-7.7l-1.3-1.3l-21.9,7.4
	v1.3l1.9,0.5c1.7,0.3,2.9,1,3.5,1.9c0.6,0.9,0.9,2.3,0.9,4.2v40.1c0,3.3-1.5,5.4-4.5,6.3l-1.8,0.5v1.3h30.1v-1.3l-1.2-0.4
	c-3-0.9-4.5-2.9-4.5-6.3v-43.5c4.4-3.8,8.5-5.6,12.3-5.6c5.5,0,8.2,2.7,8.2,8.2v40.8c0,3.2-1.5,5.3-4.5,6.3l-1.7,0.5v1.3h30.2v-1.3
	l-1.2-0.4C497.9,218.7,496.2,216.6,496.2,213.3z M540.3,216c-1.4,0.9-2.9,1.3-4.7,1.3c-2,0-3.7-0.8-5.1-2.3c-1.3-1.5-2-3.8-2-6.8
	v-46.1H543v-2.6h-14.3l0.4-17.9h-1.3l-10.5,11.6c-1.9,1.9-3.8,3.4-5.7,4.5c-1.9,1.1-4.2,2-6.8,2.6l-3.1,0.5v1.3h8.8V206
	c0,6,1.5,10.3,4.5,13.1c3,2.7,7.3,4.1,12.7,4.1c4.3,0,7.9-0.9,10.9-2.6c3-1.7,5.3-4,7-6.9l-1.3-1.3C543,213.9,541.6,215.1,540.3,216
	z M570.2,204.4c-2.1-2.2-4.7-3.3-7.8-3.3s-5.7,1.1-7.8,3.3c-2.1,2.2-3.2,4.8-3.2,7.8c0,3,1.1,5.5,3.2,7.7c2.1,2.1,4.7,3.2,7.8,3.2
	s5.7-1.1,7.8-3.2c2.1-2.1,3.2-4.7,3.2-7.7C573.4,209.3,572.3,206.7,570.2,204.4z"/>
<g>
	<text transform="matrix(1 0 0 1 18.229 87.8551)" class="st0 st1 st2">Derash</text>
</g>
</svg>
