<svg id="Layer_1" data-name="Layer 1" xmlns="http://www.w3.org/2000/svg" viewBox="0 0 572 92"><defs><style>.cls-1{font-size:111.33px;font-family:Helvetica-Bold, Helvetica;font-weight:700;}.cls-1,.cls-3{fill:#fff;}.cls-2{font-size:73.32px;font-family:Georgia-Bold, Georgia;}</style></defs><text class="cls-1" transform="translate(60.38 87.79) scale(0.99 1)">Q<tspan class="cls-2" x="86.6" y="0">ueen’s</tspan></text><polygon class="cls-3" points="188.85 49.53 152.32 49.28 152.3 45.22 188.83 45.47 188.85 49.53"/><polygon class="cls-3" points="169.97 46.9 151.4 23.36 153.49 20.48 172.07 44.03 169.97 46.9"/><polygon class="cls-3" points="184.01 22.11 169.67 48.94 167.13 46.53 181.47 19.7 184.01 22.11"/><polygon class="cls-3" points="168.87 20.84 188.79 45.61 186.72 48.51 166.8 23.75 168.87 20.84"/><polygon class="cls-3" points="152.3 45.59 168.82 20.84 171.16 23.58 154.65 48.33 152.3 45.59"/><polyline class="cls-3" points="169.37 29.14 166.8 33.65 169.63 38.77 172.3 33.95"/><polyline class="cls-3" points="185.69 29.42 181.21 32.54 185.7 35.25"/><polyline class="cls-3" points="150.08 36.61 154.59 33.52 150.13 30.78"/><polyline class="cls-3" points="162.01 39.99 160.71 44.05 163.99 44.04"/><polyline class="cls-3" points="176.96 40.21 174.96 43.83 179.01 43.82"/></svg>